<?xml version="1.0"?>
<svg id="Capa_1" xmlns="http://www.w3.org/2000/svg" viewBox="0 0 500 500" width="500" height="500"><style>.st0{fill:#0D5EFF;}</style><path class="st0" d="M134.6 177.3c-9.6-4.1-19.8-6.2-30.7-6.2-10.8 0-21 2.1-30.7 6.2-4.9 2.1-9.5 4.6-13.7 7.5l87-1.2c-3.7-2.4-7.7-4.5-11.9-6.3zm.9 73.1c0 4.2-.9 8.2-2.5 11.9-1 2.3-2.2 4.4-3.6 6.3l51.4-.7c1.3-5.5 1.9-11.1 2-16.9l-47.3-.6zm0 0c0 4.2-.9 8.2-2.5 11.9-1 2.3-2.2 4.4-3.6 6.3l51.4-.7c1.3-5.5 1.9-11.1 2-16.9l-47.3-.6zm44.7-20.6l-52.7-.7c2.2 2.5 4 5.4 5.4 8.6 1.3 3.1 2.1 6.2 2.4 9.6l47.4-.6c-.2-5.8-1-11.4-2.5-16.9zm-44.7 20.6c0 4.2-.9 8.2-2.5 11.9-1 2.3-2.2 4.4-3.6 6.3l51.4-.7c1.3-5.5 1.9-11.1 2-16.9l-47.3-.6zm44.7-20.6l-52.7-.7c2.2 2.5 4 5.4 5.4 8.6 1.3 3.1 2.1 6.2 2.4 9.6l47.4-.6c-.2-5.8-1-11.4-2.5-16.9zm-44.7 20.6c0 4.2-.9 8.2-2.5 11.9-1 2.3-2.2 4.4-3.6 6.3l51.4-.7c1.3-5.5 1.9-11.1 2-16.9l-47.3-.6zm44.7-20.6l-52.7-.7c2.2 2.5 4 5.4 5.4 8.6 1.3 3.1 2.1 6.2 2.4 9.6l47.4-.6c-.2-5.8-1-11.4-2.5-16.9zm-44.7 20.6c0 4.2-.9 8.2-2.5 11.9-1 2.3-2.2 4.4-3.6 6.3l51.4-.7c1.3-5.5 1.9-11.1 2-16.9l-47.3-.6zm44.7-20.6l-52.7-.7c2.2 2.5 4 5.4 5.4 8.6 1.3 3.1 2.1 6.2 2.4 9.6l47.4-.6c-.2-5.8-1-11.4-2.5-16.9zm-44.7 20.6c0 4.2-.9 8.2-2.5 11.9-1 2.3-2.2 4.4-3.6 6.3l51.4-.7c1.3-5.5 1.9-11.1 2-16.9l-47.3-.6zm44.7-20.6l-52.7-.7c2.2 2.5 4 5.4 5.4 8.6 1.3 3.1 2.1 6.2 2.4 9.6l47.4-.6c-.2-5.8-1-11.4-2.5-16.9zm-44.7 20.6c0 4.2-.9 8.2-2.5 11.9-1 2.3-2.2 4.4-3.6 6.3l51.4-.7c1.3-5.5 1.9-11.1 2-16.9l-47.3-.6zm44.7-20.6l-52.7-.7c2.2 2.5 4 5.4 5.4 8.6 1.3 3.1 2.1 6.2 2.4 9.6l47.4-.6c-.2-5.8-1-11.4-2.5-16.9zm-44.7 20.6c0 4.2-.9 8.2-2.5 11.9-1 2.3-2.2 4.4-3.6 6.3l51.4-.7c1.3-5.5 1.9-11.1 2-16.9l-47.3-.6zm44.7-20.6l-52.7-.7c2.2 2.5 4 5.4 5.4 8.6 1.3 3.1 2.1 6.2 2.4 9.6l47.4-.6c-.2-5.8-1-11.4-2.5-16.9zm-44.7 20.6c0 4.2-.9 8.2-2.5 11.9-1 2.3-2.2 4.4-3.6 6.3l51.4-.7c1.3-5.5 1.9-11.1 2-16.9l-47.3-.6zm44.7-20.6l-52.7-.7c2.2 2.5 4 5.4 5.4 8.6 1.3 3.1 2.1 6.2 2.4 9.6l47.4-.6c-.2-5.8-1-11.4-2.5-16.9zm-44.7 20.6c0 4.2-.9 8.2-2.5 11.9-1 2.3-2.2 4.4-3.6 6.3l51.4-.7c1.3-5.5 1.9-11.1 2-16.9l-47.3-.6zm44.7-20.6l-52.7-.7c2.2 2.5 4 5.4 5.4 8.6 1.3 3.1 2.1 6.2 2.4 9.6l47.4-.6c-.2-5.8-1-11.4-2.5-16.9zm-44.7 20.6c0 4.2-.9 8.2-2.5 11.9-1 2.3-2.2 4.4-3.6 6.3l51.4-.7c1.3-5.5 1.9-11.1 2-16.9l-47.3-.6zm44.7-20.6l-52.7-.7c2.2 2.5 4 5.4 5.4 8.6 1.3 3.1 2.1 6.2 2.4 9.6l47.4-.6c-.2-5.8-1-11.4-2.5-16.9zm-44.7 20.6c0 4.2-.9 8.2-2.5 11.9-1 2.3-2.2 4.4-3.6 6.3l51.4-.7c1.3-5.5 1.9-11.1 2-16.9l-47.3-.6zm44.7-20.6l-52.7-.7c2.2 2.5 4 5.4 5.4 8.6 1.3 3.1 2.1 6.2 2.4 9.6l47.4-.6c-.2-5.8-1-11.4-2.5-16.9zM127 271.5l-.8.8c-2.9 2.9-6.2 5.1-10 6.8-3.8 1.7-7.9 2.5-12.3 2.5s-8.5-.8-12.3-2.5c-3.8-1.6-7.2-3.9-10-6.8-.5-.5-.9-1-1.4-1.5l-52.7-.7c.9 3.6 2.1 7.1 3.6 10.5 1.6 3.7 3.3 7.1 5.3 10.4l135.8-1.8c1.6-2.7 3-5.6 4.3-8.6 1.2-2.8 2.2-5.6 3-8.4l-52.5-.7zm-52.2-9.2c-1.7-3.8-2.5-7.9-2.5-12.3v-.4l-47.3-.7v1.1c0 6.9.8 13.6 2.5 20l51.4-.7c-1.6-2.1-3-4.5-4.1-7zm101.8-43c-1.6-3.8-3.5-7.4-5.6-10.8l-133-1.8c-2.6 3.9-4.8 8.2-6.8 12.6-1.2 2.7-2.2 5.5-3 8.3l54.2-.7c2.7-2.5 5.7-4.5 9.2-6 3.8-1.7 7.9-2.5 12.3-2.5s8.5.8 12.3 2.5c3.2 1.4 6 3.2 8.5 5.4l54.2-.7c-.6-2.1-1.4-4.2-2.3-6.3zM25 248.8l47.4-.6c.2-3.7 1-7.2 2.4-10.5 1.5-3.5 3.5-6.5 6-9.2l-52.7-.7c-1.9 6.7-3 13.7-3.1 21zm155.2-19l-52.7-.7c2.2 2.5 4 5.4 5.4 8.6 1.3 3.1 2.1 6.2 2.4 9.6l47.4-.6c-.2-5.8-1-11.4-2.5-16.9zm-44.7 20.6c0 4.2-.9 8.2-2.5 11.9-1 2.3-2.2 4.4-3.6 6.3l51.4-.7c1.3-5.5 1.9-11.1 2-16.9l-47.3-.6zm44.7-20.6l-52.7-.7c2.2 2.5 4 5.4 5.4 8.6 1.3 3.1 2.1 6.2 2.4 9.6l47.4-.6c-.2-5.8-1-11.4-2.5-16.9zm-44.7 20.6c0 4.2-.9 8.2-2.5 11.9-1 2.3-2.2 4.4-3.6 6.3l51.4-.7c1.3-5.5 1.9-11.1 2-16.9l-47.3-.6zm44.7-20.6l-52.7-.7c2.2 2.5 4 5.4 5.4 8.6 1.3 3.1 2.1 6.2 2.4 9.6l47.4-.6c-.2-5.8-1-11.4-2.5-16.9zm-44.7 20.6c0 4.2-.9 8.2-2.5 11.9-1 2.3-2.2 4.4-3.6 6.3l51.4-.7c1.3-5.5 1.9-11.1 2-16.9l-47.3-.6zm44.7-20.6l-52.7-.7c2.2 2.5 4 5.4 5.4 8.6 1.3 3.1 2.1 6.2 2.4 9.6l47.4-.6c-.2-5.8-1-11.4-2.5-16.9zm-44.7 20.6c0 4.2-.9 8.2-2.5 11.9-1 2.3-2.2 4.4-3.6 6.3l51.4-.7c1.3-5.5 1.9-11.1 2-16.9l-47.3-.6zm44.7-20.6l-52.7-.7c2.2 2.5 4 5.4 5.4 8.6 1.3 3.1 2.1 6.2 2.4 9.6l47.4-.6c-.2-5.8-1-11.4-2.5-16.9zm-44.7 20.6c0 4.2-.9 8.2-2.5 11.9-1 2.3-2.2 4.4-3.6 6.3l51.4-.7c1.3-5.5 1.9-11.1 2-16.9l-47.3-.6zm44.7-20.6l-52.7-.7c2.2 2.5 4 5.4 5.4 8.6 1.3 3.1 2.1 6.2 2.4 9.6l47.4-.6c-.2-5.8-1-11.4-2.5-16.9zm-44.7 20.6c0 4.2-.9 8.2-2.5 11.9-1 2.3-2.2 4.4-3.6 6.3l51.4-.7c1.3-5.5 1.9-11.1 2-16.9l-47.3-.6zm44.7-20.6l-52.7-.7c2.2 2.5 4 5.4 5.4 8.6 1.3 3.1 2.1 6.2 2.4 9.6l47.4-.6c-.2-5.8-1-11.4-2.5-16.9zm-44.7 20.6c0 4.2-.9 8.2-2.5 11.9-1 2.3-2.2 4.4-3.6 6.3l51.4-.7c1.3-5.5 1.9-11.1 2-16.9l-47.3-.6zm44.7-20.6l-52.7-.7c2.2 2.5 4 5.4 5.4 8.6 1.3 3.1 2.1 6.2 2.4 9.6l47.4-.6c-.2-5.8-1-11.4-2.5-16.9zm-44.7 20.6c0 4.2-.9 8.2-2.5 11.9-1 2.3-2.2 4.4-3.6 6.3l51.4-.7c1.3-5.5 1.9-11.1 2-16.9l-47.3-.6zm44.7-20.6l-52.7-.7c2.2 2.5 4 5.4 5.4 8.6 1.3 3.1 2.1 6.2 2.4 9.6l47.4-.6c-.2-5.8-1-11.4-2.5-16.9zm-44.7 20.6c0 4.2-.9 8.2-2.5 11.9-1 2.3-2.2 4.4-3.6 6.3l51.4-.7c1.3-5.5 1.9-11.1 2-16.9l-47.3-.6zm44.7-20.6l-52.7-.7c2.2 2.5 4 5.4 5.4 8.6 1.3 3.1 2.1 6.2 2.4 9.6l47.4-.6c-.2-5.8-1-11.4-2.5-16.9zm-44.7 20.6c0 4.2-.9 8.2-2.5 11.9-1 2.3-2.2 4.4-3.6 6.3l51.4-.7c1.3-5.5 1.9-11.1 2-16.9l-47.3-.6zm44.7-20.6l-52.7-.7c2.2 2.5 4 5.4 5.4 8.6 1.3 3.1 2.1 6.2 2.4 9.6l47.4-.6c-.2-5.8-1-11.4-2.5-16.9zm-44.7 20.6c0 4.2-.9 8.2-2.5 11.9-1 2.3-2.2 4.4-3.6 6.3l51.4-.7c1.3-5.5 1.9-11.1 2-16.9l-47.3-.6zm-79.2 62.5c5.1 3.9 10.8 7.1 16.9 9.8 9.6 4.1 19.8 6.2 30.7 6.2 10.8 0 21-2.1 30.7-6.2 5.5-2.3 10.5-5.2 15.2-8.5l-93.5-1.3zm-19.5-21.4c3.2 5.2 7 10 11.3 14.3 2.2 2.2 4.5 4.3 7 6.2l99.2-1.3c1.9-1.5 3.6-3.2 5.4-4.9 3.8-3.8 7.2-8 10.2-12.5l-133.1-1.8zm143.4-61.7l-52.7-.7c2.2 2.5 4 5.4 5.4 8.6 1.3 3.1 2.1 6.2 2.4 9.6l47.4-.6c-.2-5.8-1-11.4-2.5-16.9zm-44.7 20.6c0 4.2-.9 8.2-2.5 11.9-1 2.3-2.2 4.4-3.6 6.3l51.4-.7c1.3-5.5 1.9-11.1 2-16.9l-47.3-.6zm44.7-20.6l-52.7-.7c2.2 2.5 4 5.4 5.4 8.6 1.3 3.1 2.1 6.2 2.4 9.6l47.4-.6c-.2-5.8-1-11.4-2.5-16.9zm-44.7 20.6c0 4.2-.9 8.2-2.5 11.9-1 2.3-2.2 4.4-3.6 6.3l51.4-.7c1.3-5.5 1.9-11.1 2-16.9l-47.3-.6zm24.2-56.2c-2.6-2.6-5.3-5-8.2-7.1L58 185.8c-3.5 2.5-6.9 5.3-9.9 8.4-3.7 3.7-7 7.7-9.9 12.1l130.1-1.8c-2.5-3.7-5.4-7.1-8.6-10.3zm-24.2 56.2c0 4.2-.9 8.2-2.5 11.9-1 2.3-2.2 4.4-3.6 6.3l51.4-.7c1.3-5.5 1.9-11.1 2-16.9l-47.3-.6zM186.7 314.7v8.8c3.6 1 7.6 2 11.9 2.7 3.8.8 8.1 1.4 13 1.9s10.2.8 15.9.8c9.5 0 17.7-1.2 24.6-3.7 6.5-2.3 11.9-5.5 16.2-9.4l-81.6-1.1zm92.3-50.5c-1.7-4.4-3.8-8.3-6.2-11.9l-68.9-.9c1.2 1.2 2.5 2.3 3.8 3.4 3.7 3 7.1 5.8 10.4 8.2 2 1.6 3.8 3 5.4 4.4l56.3-.8c-.2-.8-.5-1.6-.8-2.4zm-92.5-55.5c-.2 1.8-.3 3.7-.3 5.7 0 4 .4 7.6 1.2 11.1l56.9-.8c-1.8-1.7-2.7-3.1-2.7-4.2 0-1.4.5-2.4 1.4-3.2.9-.8 2-1.3 3.2-1.6 1.2-.3 2.5-.5 3.8-.6s2.5-.1 3.4-.1c1.7 0 3.2.1 4.7.2 1.5.2 2.8.3 4 .5 1.5.2 2.9.3 4.1.5v-6.4l-79.7-1.1zm70-36c-2.9-.3-6.1-.6-9.7-1-3.6-.4-7.2-.6-10.8-.6-6.9 0-13.4.9-19.5 2.8s-11.4 4.6-15.9 8.2c-.3.2-.6.5-.9.8l66.5-.9v-8c-3.1-.4-6.4-.9-9.7-1.3zm-61.4 14.9c-2 2.4-3.7 5.1-5 8-1.3 2.7-2.2 5.5-2.8 8.6l79-1.1v-14.6l-71.2-.9zm66.7 52c-3.5-3.2-6.8-5.9-9.7-8.3-.2-.2-.4-.3-.6-.5l-62.7-.8c.2.4.3.8.5 1.2 2.1 4.9 4.8 9.3 8 13.2l1.8 2.1 68.5-.9c-1.8-2.2-3.7-4.1-5.8-6zm19.7 34l-52.9-.7c.5.9.7 1.9.7 2.8 0 5.1-3.5 7.7-10.4 7.7-3.9 0-7.8-.2-11.6-.7-3.8-.5-7.3-1-10.3-1.8-3.6-.6-7.1-1.4-10.4-2.5V289l95-1.3c.2-2.1.4-4.2.4-6.4 0-2.7-.2-5.2-.5-7.7zm-94.8 19.9v16.7l87.5-1.2c1.9-2.8 3.5-5.8 4.7-9.1.6-1.7 1.1-3.4 1.6-5.2l-93.8-1.2zM389.3 174.7h-32.9l-2 6.1 36.8-.5-1.9-5.6zm-55.7 36l-51.2-.7 4.6 14.1 50.8-.7-4.2-12.7zm60.9-20.4l-43.1-.6-4.1 12.3 50.8-.7-3.6-11zm7 21.3l-57.1-.8-4.1 12.5 64.8-.9-3.6-10.8zm-112.1 19.7l4.6 13.9 158.5-2.1 3.1-9.5-166.2-2.3zm89 64.8l3.8 11.5 49.2-.7 3.3-10.1-56.3-.7zm-74.9-22.2l4.4 13.5 62.6-.8 2.3-7 2.3 7 63.2-.9 3.2-9.9-138-1.9zm81.9 43.5l2.5 7.7h37.4l2.3-7.1-42.2-.6zm-67.9-.9l2.8 8.6h37.4l2.7-8-42.9-.6zm-7-21.3l4.4 13.3 48.6-.7 3.9-11.9-56.9-.7zm-14.1-42.6l4.5 13.7 144.5-2 3.2-9.7-152.2-2zM424 174.7l-1.7 5.2 51.2-.7 1.5-4.5h-51zm-8.7 26.5l51.2-.7 3-9.1-50.7-.7-3.5 10.5zm-3.5 10.6l-3.5 10.7 51.2-.7 3.1-9.3-50.8-.7zm-85.2-22.4l-51.2-.7 4.7 14.3 50.7-.7-4.2-12.9zm-4.9-14.7h-51l2.4 7.2 50.7-.7-2.1-6.5z"></path></svg>